<?xml version="1.0" encoding="UTF-8" standalone="no"?><svg xmlns="http://www.w3.org/2000/svg" xmlns:xlink="http://www.w3.org/1999/xlink" contentScriptType="application/ecmascript" contentStyleType="text/css" height="303px" preserveAspectRatio="none" style="width:348px;height:303px;" version="1.1" viewBox="0 0 348 303" width="348px" zoomAndPan="magnify"><defs><filter height="300%" id="f1nw9r6nznz4ys" width="300%" x="-1" y="-1"><feGaussianBlur result="blurOut" stdDeviation="2.0"/><feColorMatrix in="blurOut" result="blurOut2" type="matrix" values="0 0 0 0 0 0 0 0 0 0 0 0 0 0 0 0 0 0 .4 0"/><feOffset dx="4.0" dy="4.0" in="blurOut2" result="blurOut3"/><feBlend in="SourceGraphic" in2="blurOut3" mode="normal"/></filter></defs><g><!--MD5=[efc81abd67b1b5189613d5654d7e7329]
class GameEntity--><rect codeLine="1" fill="#FEFECE" filter="url(#f1nw9r6nznz4ys)" height="48" id="GameEntity" style="stroke:#A80036;stroke-width:1.5;" width="99" x="56.5" y="132"/><ellipse cx="71.5" cy="148" fill="#ADD1B2" rx="11" ry="11" style="stroke:#A80036;stroke-width:1.0;"/><path d="M73.8438,143.6719 C72.9063,143.2344 72.3125,143.0938 71.4375,143.0938 C68.8125,143.0938 66.8125,145.1719 66.8125,147.8906 L66.8125,149.0156 C66.8125,151.5938 68.9219,153.4844 71.8125,153.4844 C73.0313,153.4844 74.1875,153.1875 74.9375,152.6406 C75.5156,152.2344 75.8438,151.7813 75.8438,151.3906 C75.8438,150.9375 75.4531,150.5469 74.9844,150.5469 C74.7656,150.5469 74.5625,150.625 74.375,150.8125 C73.9219,151.2969 73.9219,151.2969 73.7344,151.3906 C73.3125,151.6563 72.625,151.7813 71.8594,151.7813 C69.8125,151.7813 68.5156,150.6875 68.5156,148.9844 L68.5156,147.8906 C68.5156,146.1094 69.7656,144.7969 71.5,144.7969 C72.0781,144.7969 72.6875,144.9531 73.1563,145.2031 C73.6406,145.4844 73.8125,145.7031 73.9063,146.1094 C73.9688,146.5156 74,146.6406 74.1406,146.7656 C74.2813,146.9063 74.5156,147.0156 74.7344,147.0156 C75,147.0156 75.2656,146.875 75.4375,146.6563 C75.5469,146.5 75.5781,146.3125 75.5781,145.8906 L75.5781,144.4688 C75.5781,144.0313 75.5625,143.9063 75.4688,143.75 C75.3125,143.4844 75.0313,143.3438 74.7344,143.3438 C74.4375,143.3438 74.2344,143.4375 74.0156,143.75 L73.8438,143.6719 Z " fill="#000000"/><text fill="#000000" font-family="sans-serif" font-size="12" lengthAdjust="spacing" textLength="67" x="85.5" y="152.1543">GameEntity</text><line style="stroke:#A80036;stroke-width:1.5;" x1="57.5" x2="154.5" y1="164" y2="164"/><line style="stroke:#A80036;stroke-width:1.5;" x1="57.5" x2="154.5" y1="172" y2="172"/><!--MD5=[3eff9d4279c887ef9286477750bdaaff]
class Character--><rect codeLine="2" fill="#FEFECE" filter="url(#f1nw9r6nznz4ys)" height="48" id="Character" style="stroke:#A80036;stroke-width:1.5;" width="90" x="7" y="241"/><ellipse cx="22" cy="257" fill="#ADD1B2" rx="11" ry="11" style="stroke:#A80036;stroke-width:1.0;"/><path d="M24.3438,252.6719 C23.4063,252.2344 22.8125,252.0938 21.9375,252.0938 C19.3125,252.0938 17.3125,254.1719 17.3125,256.8906 L17.3125,258.0156 C17.3125,260.5938 19.4219,262.4844 22.3125,262.4844 C23.5313,262.4844 24.6875,262.1875 25.4375,261.6406 C26.0156,261.2344 26.3438,260.7813 26.3438,260.3906 C26.3438,259.9375 25.9531,259.5469 25.4844,259.5469 C25.2656,259.5469 25.0625,259.625 24.875,259.8125 C24.4219,260.2969 24.4219,260.2969 24.2344,260.3906 C23.8125,260.6563 23.125,260.7813 22.3594,260.7813 C20.3125,260.7813 19.0156,259.6875 19.0156,257.9844 L19.0156,256.8906 C19.0156,255.1094 20.2656,253.7969 22,253.7969 C22.5781,253.7969 23.1875,253.9531 23.6563,254.2031 C24.1406,254.4844 24.3125,254.7031 24.4063,255.1094 C24.4688,255.5156 24.5,255.6406 24.6406,255.7656 C24.7813,255.9063 25.0156,256.0156 25.2344,256.0156 C25.5,256.0156 25.7656,255.875 25.9375,255.6563 C26.0469,255.5 26.0781,255.3125 26.0781,254.8906 L26.0781,253.4688 C26.0781,253.0313 26.0625,252.9063 25.9688,252.75 C25.8125,252.4844 25.5313,252.3438 25.2344,252.3438 C24.9375,252.3438 24.7344,252.4375 24.5156,252.75 L24.3438,252.6719 Z " fill="#000000"/><text fill="#000000" font-family="sans-serif" font-size="12" lengthAdjust="spacing" textLength="58" x="36" y="261.1543">Character</text><line style="stroke:#A80036;stroke-width:1.5;" x1="8" x2="96" y1="273" y2="273"/><line style="stroke:#A80036;stroke-width:1.5;" x1="8" x2="96" y1="281" y2="281"/><!--MD5=[44a1b4afaef76c16e6c9ec4990ad0c8d]
class Item--><rect codeLine="3" fill="#FEFECE" filter="url(#f1nw9r6nznz4ys)" height="48" id="Item" style="stroke:#A80036;stroke-width:1.5;" width="58" x="132" y="241"/><ellipse cx="147" cy="257" fill="#ADD1B2" rx="11" ry="11" style="stroke:#A80036;stroke-width:1.0;"/><path d="M149.3438,252.6719 C148.4063,252.2344 147.8125,252.0938 146.9375,252.0938 C144.3125,252.0938 142.3125,254.1719 142.3125,256.8906 L142.3125,258.0156 C142.3125,260.5938 144.4219,262.4844 147.3125,262.4844 C148.5313,262.4844 149.6875,262.1875 150.4375,261.6406 C151.0156,261.2344 151.3438,260.7813 151.3438,260.3906 C151.3438,259.9375 150.9531,259.5469 150.4844,259.5469 C150.2656,259.5469 150.0625,259.625 149.875,259.8125 C149.4219,260.2969 149.4219,260.2969 149.2344,260.3906 C148.8125,260.6563 148.125,260.7813 147.3594,260.7813 C145.3125,260.7813 144.0156,259.6875 144.0156,257.9844 L144.0156,256.8906 C144.0156,255.1094 145.2656,253.7969 147,253.7969 C147.5781,253.7969 148.1875,253.9531 148.6563,254.2031 C149.1406,254.4844 149.3125,254.7031 149.4063,255.1094 C149.4688,255.5156 149.5,255.6406 149.6406,255.7656 C149.7813,255.9063 150.0156,256.0156 150.2344,256.0156 C150.5,256.0156 150.7656,255.875 150.9375,255.6563 C151.0469,255.5 151.0781,255.3125 151.0781,254.8906 L151.0781,253.4688 C151.0781,253.0313 151.0625,252.9063 150.9688,252.75 C150.8125,252.4844 150.5313,252.3438 150.2344,252.3438 C149.9375,252.3438 149.7344,252.4375 149.5156,252.75 L149.3438,252.6719 Z " fill="#000000"/><text fill="#000000" font-family="sans-serif" font-size="12" lengthAdjust="spacing" textLength="26" x="161" y="261.1543">Item</text><line style="stroke:#A80036;stroke-width:1.5;" x1="133" x2="189" y1="273" y2="273"/><line style="stroke:#A80036;stroke-width:1.5;" x1="133" x2="189" y1="281" y2="281"/><!--MD5=[3fd616f346a44cd59a91eb10b19e157c]
class User--><rect codeLine="4" fill="#FEFECE" filter="url(#f1nw9r6nznz4ys)" height="48" id="User" style="stroke:#A80036;stroke-width:1.5;" width="61" x="75.5" y="7"/><ellipse cx="90.5" cy="23" fill="#ADD1B2" rx="11" ry="11" style="stroke:#A80036;stroke-width:1.0;"/><path d="M92.8438,18.6719 C91.9063,18.2344 91.3125,18.0938 90.4375,18.0938 C87.8125,18.0938 85.8125,20.1719 85.8125,22.8906 L85.8125,24.0156 C85.8125,26.5938 87.9219,28.4844 90.8125,28.4844 C92.0313,28.4844 93.1875,28.1875 93.9375,27.6406 C94.5156,27.2344 94.8438,26.7813 94.8438,26.3906 C94.8438,25.9375 94.4531,25.5469 93.9844,25.5469 C93.7656,25.5469 93.5625,25.625 93.375,25.8125 C92.9219,26.2969 92.9219,26.2969 92.7344,26.3906 C92.3125,26.6563 91.625,26.7813 90.8594,26.7813 C88.8125,26.7813 87.5156,25.6875 87.5156,23.9844 L87.5156,22.8906 C87.5156,21.1094 88.7656,19.7969 90.5,19.7969 C91.0781,19.7969 91.6875,19.9531 92.1563,20.2031 C92.6406,20.4844 92.8125,20.7031 92.9063,21.1094 C92.9688,21.5156 93,21.6406 93.1406,21.7656 C93.2813,21.9063 93.5156,22.0156 93.7344,22.0156 C94,22.0156 94.2656,21.875 94.4375,21.6563 C94.5469,21.5 94.5781,21.3125 94.5781,20.8906 L94.5781,19.4688 C94.5781,19.0313 94.5625,18.9063 94.4688,18.75 C94.3125,18.4844 94.0313,18.3438 93.7344,18.3438 C93.4375,18.3438 93.2344,18.4375 93.0156,18.75 L92.8438,18.6719 Z " fill="#000000"/><text fill="#000000" font-family="sans-serif" font-size="12" lengthAdjust="spacing" textLength="29" x="104.5" y="27.1543">User</text><line style="stroke:#A80036;stroke-width:1.5;" x1="76.5" x2="135.5" y1="39" y2="39"/><line style="stroke:#A80036;stroke-width:1.5;" x1="76.5" x2="135.5" y1="47" y2="47"/><!--MD5=[b6dcce5e5ef3c84b0b048d11301373dd]
class Game--><rect codeLine="5" fill="#FEFECE" filter="url(#f1nw9r6nznz4ys)" height="48" id="Game" style="stroke:#A80036;stroke-width:1.5;" width="67" x="267.5" y="132"/><ellipse cx="282.5" cy="148" fill="#ADD1B2" rx="11" ry="11" style="stroke:#A80036;stroke-width:1.0;"/><path d="M284.8438,143.6719 C283.9063,143.2344 283.3125,143.0938 282.4375,143.0938 C279.8125,143.0938 277.8125,145.1719 277.8125,147.8906 L277.8125,149.0156 C277.8125,151.5938 279.9219,153.4844 282.8125,153.4844 C284.0313,153.4844 285.1875,153.1875 285.9375,152.6406 C286.5156,152.2344 286.8438,151.7813 286.8438,151.3906 C286.8438,150.9375 286.4531,150.5469 285.9844,150.5469 C285.7656,150.5469 285.5625,150.625 285.375,150.8125 C284.9219,151.2969 284.9219,151.2969 284.7344,151.3906 C284.3125,151.6563 283.625,151.7813 282.8594,151.7813 C280.8125,151.7813 279.5156,150.6875 279.5156,148.9844 L279.5156,147.8906 C279.5156,146.1094 280.7656,144.7969 282.5,144.7969 C283.0781,144.7969 283.6875,144.9531 284.1563,145.2031 C284.6406,145.4844 284.8125,145.7031 284.9063,146.1094 C284.9688,146.5156 285,146.6406 285.1406,146.7656 C285.2813,146.9063 285.5156,147.0156 285.7344,147.0156 C286,147.0156 286.2656,146.875 286.4375,146.6563 C286.5469,146.5 286.5781,146.3125 286.5781,145.8906 L286.5781,144.4688 C286.5781,144.0313 286.5625,143.9063 286.4688,143.75 C286.3125,143.4844 286.0313,143.3438 285.7344,143.3438 C285.4375,143.3438 285.2344,143.4375 285.0156,143.75 L284.8438,143.6719 Z " fill="#000000"/><text fill="#000000" font-family="sans-serif" font-size="12" lengthAdjust="spacing" textLength="35" x="296.5" y="152.1543">Game</text><line style="stroke:#A80036;stroke-width:1.5;" x1="268.5" x2="333.5" y1="164" y2="164"/><line style="stroke:#A80036;stroke-width:1.5;" x1="268.5" x2="333.5" y1="172" y2="172"/><!--MD5=[045954dddd91d3c2fd57fad96e6e041d]
link User to GameEntity--><path codeLine="8" d="M106,55.135 C106,73.089 106,98.304 106,118.905 " fill="none" id="User-to-GameEntity" style="stroke:#A80036;stroke-width:1.0;"/><polygon fill="#A80036" points="106,131.968,110,125.968,106,119.968,102,125.968,106,131.968" style="stroke:#A80036;stroke-width:1.0;"/><text fill="#000000" font-family="sans-serif" font-size="13" lengthAdjust="spacing" textLength="34" x="107" y="98.0669">plays</text><!--MD5=[270a9ac607ed2a6a84776a5308f2c3e7]
link GameEntity to Game--><path codeLine="9" d="M155.711,156 C185.909,156 224.232,156 253.936,156 " fill="none" id="GameEntity-to-Game" style="stroke:#A80036;stroke-width:1.0;"/><polygon fill="#A80036" points="267.334,156,261.334,152,255.334,156,261.334,160,267.334,156" style="stroke:#A80036;stroke-width:1.0;"/><text fill="#000000" font-family="sans-serif" font-size="13" lengthAdjust="spacing" textLength="75" x="174" y="149.0669">Participates</text><!--MD5=[6e2182d11701e7c431a26716328abf3b]
reverse link GameEntity to Character--><path codeLine="11" d="M85.2444,198.1268 C77.939,212.6024 69.9882,228.3567 63.6943,240.8279 " fill="none" id="GameEntity-backto-Character" style="stroke:#A80036;stroke-width:1.0;"/><polygon fill="none" points="79.0225,194.9186,94.2828,180.217,91.5211,201.2263,79.0225,194.9186" style="stroke:#A80036;stroke-width:1.0;"/><!--MD5=[feba8ce2ff7de9f8cf1dfbf05ed52907]
reverse link GameEntity to Item--><path codeLine="12" d="M127.14,198.1268 C134.581,212.6024 142.679,228.3567 149.089,240.8279 " fill="none" id="GameEntity-backto-Item" style="stroke:#A80036;stroke-width:1.0;"/><polygon fill="none" points="120.852,201.2052,117.934,180.217,133.303,194.805,120.852,201.2052" style="stroke:#A80036;stroke-width:1.0;"/><!--MD5=[6b0fd7801b655c12bb9f44cd1a2bda08]
@startuml
class "GameEntity"
class "Character"
class "Item"
class "User"
class "Game"


User - -* GameEntity : plays
GameEntity -* Game : Participates

GameEntity <|- - Character
GameEntity <|- - Item
@enduml

PlantUML version 1.2021.5(Sun Apr 25 11:20:28 UTC 2021)
(GPL source distribution)
Java Runtime: Java(TM) SE Runtime Environment
JVM: Java HotSpot(TM) 64-Bit Server VM
Default Encoding: UTF-8
Language: en
Country: US
--></g></svg>