<?xml version="1.0" encoding="UTF-8" standalone="no"?><svg xmlns="http://www.w3.org/2000/svg" xmlns:xlink="http://www.w3.org/1999/xlink" contentScriptType="application/ecmascript" contentStyleType="text/css" height="326px" preserveAspectRatio="none" style="width:421px;height:326px;" version="1.1" viewBox="0 0 421 326" width="421px" zoomAndPan="magnify"><defs><filter height="300%" id="f1gkhbm2khz3a4" width="300%" x="-1" y="-1"><feGaussianBlur result="blurOut" stdDeviation="2.0"/><feColorMatrix in="blurOut" result="blurOut2" type="matrix" values="0 0 0 0 0 0 0 0 0 0 0 0 0 0 0 0 0 0 .4 0"/><feOffset dx="4.0" dy="4.0" in="blurOut2" result="blurOut3"/><feBlend in="SourceGraphic" in2="blurOut3" mode="normal"/></filter></defs><g><!--MD5=[efc81abd67b1b5189613d5654d7e7329]
class GameEntity--><rect codeLine="1" fill="#FEFECE" filter="url(#f1gkhbm2khz3a4)" height="60.8047" id="GameEntity" style="stroke:#A80036;stroke-width:1.5;" width="99" x="129.5" y="137"/><ellipse cx="144.5" cy="153" fill="#ADD1B2" rx="11" ry="11" style="stroke:#A80036;stroke-width:1.0;"/><path d="M146.8438,148.6719 C145.9063,148.2344 145.3125,148.0938 144.4375,148.0938 C141.8125,148.0938 139.8125,150.1719 139.8125,152.8906 L139.8125,154.0156 C139.8125,156.5938 141.9219,158.4844 144.8125,158.4844 C146.0313,158.4844 147.1875,158.1875 147.9375,157.6406 C148.5156,157.2344 148.8438,156.7813 148.8438,156.3906 C148.8438,155.9375 148.4531,155.5469 147.9844,155.5469 C147.7656,155.5469 147.5625,155.625 147.375,155.8125 C146.9219,156.2969 146.9219,156.2969 146.7344,156.3906 C146.3125,156.6563 145.625,156.7813 144.8594,156.7813 C142.8125,156.7813 141.5156,155.6875 141.5156,153.9844 L141.5156,152.8906 C141.5156,151.1094 142.7656,149.7969 144.5,149.7969 C145.0781,149.7969 145.6875,149.9531 146.1563,150.2031 C146.6406,150.4844 146.8125,150.7031 146.9063,151.1094 C146.9688,151.5156 147,151.6406 147.1406,151.7656 C147.2813,151.9063 147.5156,152.0156 147.7344,152.0156 C148,152.0156 148.2656,151.875 148.4375,151.6563 C148.5469,151.5 148.5781,151.3125 148.5781,150.8906 L148.5781,149.4688 C148.5781,149.0313 148.5625,148.9063 148.4688,148.75 C148.3125,148.4844 148.0313,148.3438 147.7344,148.3438 C147.4375,148.3438 147.2344,148.4375 147.0156,148.75 L146.8438,148.6719 Z " fill="#000000"/><text fill="#000000" font-family="sans-serif" font-size="12" lengthAdjust="spacing" textLength="67" x="158.5" y="157.1543">GameEntity</text><line style="stroke:#A80036;stroke-width:1.5;" x1="130.5" x2="227.5" y1="169" y2="169"/><ellipse cx="140.5" cy="180" rx="3" ry="3" style="stroke:#038048;stroke-width:1.0;fill:none;"/><text fill="#000000" font-family="sans-serif" font-size="11" lengthAdjust="spacing" textLength="29" x="149.5" y="183.2104">state</text><line style="stroke:#A80036;stroke-width:1.5;" x1="130.5" x2="227.5" y1="189.8047" y2="189.8047"/><path d="M6,132 L6,202.5313 A0,0 0 0 0 6,202.5313 L94,202.5313 A0,0 0 0 0 94,202.5313 L94,171.5 L129.249,167.5 L94,163.5 L94,142 L84,132 L6,132 A0,0 0 0 0 6,132 " fill="#FBFB77" filter="url(#f1gkhbm2khz3a4)" style="stroke:#A80036;stroke-width:1.0;"/><path d="M84,132 L84,142 L94,142 L84,132 " fill="#FBFB77" style="stroke:#A80036;stroke-width:1.0;"/><text fill="#000000" font-family="sans-serif" font-size="13" lengthAdjust="spacing" textLength="49" x="12" y="149.0669">STATES</text><text fill="#000000" font-family="sans-serif" font-size="13" lengthAdjust="spacing" textLength="63" x="16" y="164.1997">- playable</text><text fill="#000000" font-family="sans-serif" font-size="13" lengthAdjust="spacing" textLength="32" x="16" y="179.3325">- npc</text><text fill="#000000" font-family="sans-serif" font-size="13" lengthAdjust="spacing" textLength="53" x="16" y="194.4653">- lifeless</text><!--MD5=[3eff9d4279c887ef9286477750bdaaff]
class Character--><rect codeLine="6" fill="#FEFECE" filter="url(#f1gkhbm2khz3a4)" height="48" id="Character" style="stroke:#A80036;stroke-width:1.5;" width="90" x="80" y="264"/><ellipse cx="95" cy="280" fill="#ADD1B2" rx="11" ry="11" style="stroke:#A80036;stroke-width:1.0;"/><path d="M97.3438,275.6719 C96.4063,275.2344 95.8125,275.0938 94.9375,275.0938 C92.3125,275.0938 90.3125,277.1719 90.3125,279.8906 L90.3125,281.0156 C90.3125,283.5938 92.4219,285.4844 95.3125,285.4844 C96.5313,285.4844 97.6875,285.1875 98.4375,284.6406 C99.0156,284.2344 99.3438,283.7813 99.3438,283.3906 C99.3438,282.9375 98.9531,282.5469 98.4844,282.5469 C98.2656,282.5469 98.0625,282.625 97.875,282.8125 C97.4219,283.2969 97.4219,283.2969 97.2344,283.3906 C96.8125,283.6563 96.125,283.7813 95.3594,283.7813 C93.3125,283.7813 92.0156,282.6875 92.0156,280.9844 L92.0156,279.8906 C92.0156,278.1094 93.2656,276.7969 95,276.7969 C95.5781,276.7969 96.1875,276.9531 96.6563,277.2031 C97.1406,277.4844 97.3125,277.7031 97.4063,278.1094 C97.4688,278.5156 97.5,278.6406 97.6406,278.7656 C97.7813,278.9063 98.0156,279.0156 98.2344,279.0156 C98.5,279.0156 98.7656,278.875 98.9375,278.6563 C99.0469,278.5 99.0781,278.3125 99.0781,277.8906 L99.0781,276.4688 C99.0781,276.0313 99.0625,275.9063 98.9688,275.75 C98.8125,275.4844 98.5313,275.3438 98.2344,275.3438 C97.9375,275.3438 97.7344,275.4375 97.5156,275.75 L97.3438,275.6719 Z " fill="#000000"/><text fill="#000000" font-family="sans-serif" font-size="12" lengthAdjust="spacing" textLength="58" x="109" y="284.1543">Character</text><line style="stroke:#A80036;stroke-width:1.5;" x1="81" x2="169" y1="296" y2="296"/><line style="stroke:#A80036;stroke-width:1.5;" x1="81" x2="169" y1="304" y2="304"/><!--MD5=[44a1b4afaef76c16e6c9ec4990ad0c8d]
class Item--><rect codeLine="7" fill="#FEFECE" filter="url(#f1gkhbm2khz3a4)" height="48" id="Item" style="stroke:#A80036;stroke-width:1.5;" width="58" x="205" y="264"/><ellipse cx="220" cy="280" fill="#ADD1B2" rx="11" ry="11" style="stroke:#A80036;stroke-width:1.0;"/><path d="M222.3438,275.6719 C221.4063,275.2344 220.8125,275.0938 219.9375,275.0938 C217.3125,275.0938 215.3125,277.1719 215.3125,279.8906 L215.3125,281.0156 C215.3125,283.5938 217.4219,285.4844 220.3125,285.4844 C221.5313,285.4844 222.6875,285.1875 223.4375,284.6406 C224.0156,284.2344 224.3438,283.7813 224.3438,283.3906 C224.3438,282.9375 223.9531,282.5469 223.4844,282.5469 C223.2656,282.5469 223.0625,282.625 222.875,282.8125 C222.4219,283.2969 222.4219,283.2969 222.2344,283.3906 C221.8125,283.6563 221.125,283.7813 220.3594,283.7813 C218.3125,283.7813 217.0156,282.6875 217.0156,280.9844 L217.0156,279.8906 C217.0156,278.1094 218.2656,276.7969 220,276.7969 C220.5781,276.7969 221.1875,276.9531 221.6563,277.2031 C222.1406,277.4844 222.3125,277.7031 222.4063,278.1094 C222.4688,278.5156 222.5,278.6406 222.6406,278.7656 C222.7813,278.9063 223.0156,279.0156 223.2344,279.0156 C223.5,279.0156 223.7656,278.875 223.9375,278.6563 C224.0469,278.5 224.0781,278.3125 224.0781,277.8906 L224.0781,276.4688 C224.0781,276.0313 224.0625,275.9063 223.9688,275.75 C223.8125,275.4844 223.5313,275.3438 223.2344,275.3438 C222.9375,275.3438 222.7344,275.4375 222.5156,275.75 L222.3438,275.6719 Z " fill="#000000"/><text fill="#000000" font-family="sans-serif" font-size="12" lengthAdjust="spacing" textLength="26" x="234" y="284.1543">Item</text><line style="stroke:#A80036;stroke-width:1.5;" x1="206" x2="262" y1="296" y2="296"/><line style="stroke:#A80036;stroke-width:1.5;" x1="206" x2="262" y1="304" y2="304"/><!--MD5=[3fd616f346a44cd59a91eb10b19e157c]
class User--><rect codeLine="8" fill="#FEFECE" filter="url(#f1gkhbm2khz3a4)" height="48" id="User" style="stroke:#A80036;stroke-width:1.5;" width="61" x="148.5" y="7"/><ellipse cx="163.5" cy="23" fill="#ADD1B2" rx="11" ry="11" style="stroke:#A80036;stroke-width:1.0;"/><path d="M165.8438,18.6719 C164.9063,18.2344 164.3125,18.0938 163.4375,18.0938 C160.8125,18.0938 158.8125,20.1719 158.8125,22.8906 L158.8125,24.0156 C158.8125,26.5938 160.9219,28.4844 163.8125,28.4844 C165.0313,28.4844 166.1875,28.1875 166.9375,27.6406 C167.5156,27.2344 167.8438,26.7813 167.8438,26.3906 C167.8438,25.9375 167.4531,25.5469 166.9844,25.5469 C166.7656,25.5469 166.5625,25.625 166.375,25.8125 C165.9219,26.2969 165.9219,26.2969 165.7344,26.3906 C165.3125,26.6563 164.625,26.7813 163.8594,26.7813 C161.8125,26.7813 160.5156,25.6875 160.5156,23.9844 L160.5156,22.8906 C160.5156,21.1094 161.7656,19.7969 163.5,19.7969 C164.0781,19.7969 164.6875,19.9531 165.1563,20.2031 C165.6406,20.4844 165.8125,20.7031 165.9063,21.1094 C165.9688,21.5156 166,21.6406 166.1406,21.7656 C166.2813,21.9063 166.5156,22.0156 166.7344,22.0156 C167,22.0156 167.2656,21.875 167.4375,21.6563 C167.5469,21.5 167.5781,21.3125 167.5781,20.8906 L167.5781,19.4688 C167.5781,19.0313 167.5625,18.9063 167.4688,18.75 C167.3125,18.4844 167.0313,18.3438 166.7344,18.3438 C166.4375,18.3438 166.2344,18.4375 166.0156,18.75 L165.8438,18.6719 Z " fill="#000000"/><text fill="#000000" font-family="sans-serif" font-size="12" lengthAdjust="spacing" textLength="29" x="177.5" y="27.1543">User</text><line style="stroke:#A80036;stroke-width:1.5;" x1="149.5" x2="208.5" y1="39" y2="39"/><line style="stroke:#A80036;stroke-width:1.5;" x1="149.5" x2="208.5" y1="47" y2="47"/><!--MD5=[b6dcce5e5ef3c84b0b048d11301373dd]
class Game--><rect codeLine="9" fill="#FEFECE" filter="url(#f1gkhbm2khz3a4)" height="48" id="Game" style="stroke:#A80036;stroke-width:1.5;" width="67" x="340.5" y="143.5"/><ellipse cx="355.5" cy="159.5" fill="#ADD1B2" rx="11" ry="11" style="stroke:#A80036;stroke-width:1.0;"/><path d="M357.8438,155.1719 C356.9063,154.7344 356.3125,154.5938 355.4375,154.5938 C352.8125,154.5938 350.8125,156.6719 350.8125,159.3906 L350.8125,160.5156 C350.8125,163.0938 352.9219,164.9844 355.8125,164.9844 C357.0313,164.9844 358.1875,164.6875 358.9375,164.1406 C359.5156,163.7344 359.8438,163.2813 359.8438,162.8906 C359.8438,162.4375 359.4531,162.0469 358.9844,162.0469 C358.7656,162.0469 358.5625,162.125 358.375,162.3125 C357.9219,162.7969 357.9219,162.7969 357.7344,162.8906 C357.3125,163.1563 356.625,163.2813 355.8594,163.2813 C353.8125,163.2813 352.5156,162.1875 352.5156,160.4844 L352.5156,159.3906 C352.5156,157.6094 353.7656,156.2969 355.5,156.2969 C356.0781,156.2969 356.6875,156.4531 357.1563,156.7031 C357.6406,156.9844 357.8125,157.2031 357.9063,157.6094 C357.9688,158.0156 358,158.1406 358.1406,158.2656 C358.2813,158.4063 358.5156,158.5156 358.7344,158.5156 C359,158.5156 359.2656,158.375 359.4375,158.1563 C359.5469,158 359.5781,157.8125 359.5781,157.3906 L359.5781,155.9688 C359.5781,155.5313 359.5625,155.4063 359.4688,155.25 C359.3125,154.9844 359.0313,154.8438 358.7344,154.8438 C358.4375,154.8438 358.2344,154.9375 358.0156,155.25 L357.8438,155.1719 Z " fill="#000000"/><text fill="#000000" font-family="sans-serif" font-size="12" lengthAdjust="spacing" textLength="35" x="369.5" y="163.6543">Game</text><line style="stroke:#A80036;stroke-width:1.5;" x1="341.5" x2="406.5" y1="175.5" y2="175.5"/><line style="stroke:#A80036;stroke-width:1.5;" x1="341.5" x2="406.5" y1="183.5" y2="183.5"/><!--MD5=[045954dddd91d3c2fd57fad96e6e041d]
link User to GameEntity--><path codeLine="12" d="M179,55.121 C179,73.869 179,100.809 179,123.497 " fill="none" id="User-to-GameEntity" style="stroke:#A80036;stroke-width:1.0;"/><polygon fill="#A80036" points="179,136.616,183,130.616,179,124.616,175,130.616,179,136.616" style="stroke:#A80036;stroke-width:1.0;"/><text fill="#000000" font-family="sans-serif" font-size="13" lengthAdjust="spacing" textLength="34" x="180" y="98.0669">plays</text><!--MD5=[270a9ac607ed2a6a84776a5308f2c3e7]
link GameEntity to Game--><path codeLine="13" d="M228.711,167.5 C258.909,167.5 297.232,167.5 326.936,167.5 " fill="none" id="GameEntity-to-Game" style="stroke:#A80036;stroke-width:1.0;"/><polygon fill="#A80036" points="340.334,167.5,334.334,163.5,328.334,167.5,334.334,171.5,340.334,167.5" style="stroke:#A80036;stroke-width:1.0;"/><text fill="#000000" font-family="sans-serif" font-size="13" lengthAdjust="spacing" textLength="75" x="247" y="160.5669">Participates</text><!--MD5=[6e2182d11701e7c431a26716328abf3b]
reverse link GameEntity to Character--><path codeLine="15" d="M157.177,216.3898 C149.742,232.7053 141.763,250.215 135.61,263.7164 " fill="none" id="GameEntity-backto-Character" style="stroke:#A80036;stroke-width:1.0;"/><polygon fill="none" points="150.85,213.3936,165.513,198.097,163.589,219.199,150.85,213.3936" style="stroke:#A80036;stroke-width:1.0;"/><!--MD5=[feba8ce2ff7de9f8cf1dfbf05ed52907]
reverse link GameEntity to Item--><path codeLine="16" d="M201.227,216.3898 C208.8,232.7053 216.927,250.215 223.193,263.7164 " fill="none" id="GameEntity-backto-Item" style="stroke:#A80036;stroke-width:1.0;"/><polygon fill="none" points="194.808,219.1851,192.737,198.097,207.506,213.2911,194.808,219.1851" style="stroke:#A80036;stroke-width:1.0;"/><!--MD5=[72b93cd95e6b79b72689ba0ebd489370]
@startuml
class "GameEntity"{
    + state
}
note left: STATES\n - playable\n - npc\n - lifeless

class "Character"
class "Item"
class "User"
class "Game"


User - -* GameEntity : plays
GameEntity -* Game : Participates

GameEntity <|- - Character
GameEntity <|- - Item
@enduml

PlantUML version 1.2021.5(Sun Apr 25 11:20:28 UTC 2021)
(GPL source distribution)
Java Runtime: Java(TM) SE Runtime Environment
JVM: Java HotSpot(TM) 64-Bit Server VM
Default Encoding: UTF-8
Language: en
Country: US
--></g></svg>